<svg id="Grupo_88032" data-name="Grupo 88032" xmlns="http://www.w3.org/2000/svg" xmlns:xlink="http://www.w3.org/1999/xlink" width="24.434" height="16.61" viewBox="0 0 24.434 16.61">
  <defs>
    <clipPath id="clip-path">
      <rect id="Rectángulo_5167" data-name="Rectángulo 5167" width="24.434" height="16.61" fill="#c1cdd5"/>
    </clipPath>
  </defs>
  <g id="Grupo_88031" data-name="Grupo 88031" transform="translate(0 0)" clip-path="url(#clip-path)">
    <path id="Trazado_122765" data-name="Trazado 122765" d="M24.434,11.012a5.6,5.6,0,0,1-1.428,1.9,19.962,19.962,0,0,1-5.886,4.464A11.7,11.7,0,0,1,13.1,18.536a10.169,10.169,0,0,1-4.374-.588,16.952,16.952,0,0,1-5.911-3.7c-.835-.777-1.605-1.628-2.373-2.474A1.592,1.592,0,0,1,.412,9.6,22.89,22.89,0,0,1,6.029,4.677a12.532,12.532,0,0,1,4.843-1.806,10.407,10.407,0,0,1,5.3.683,17.583,17.583,0,0,1,5.439,3.528c.666.612,1.29,1.271,1.919,1.921a3.44,3.44,0,0,1,.908,1.34ZM12.472,17.065a9.359,9.359,0,0,0,3.71-.928,19.756,19.756,0,0,0,6.667-5.323c.1-.122.055-.207-.031-.309a21.248,21.248,0,0,0-5.243-4.562,10.743,10.743,0,0,0-4.867-1.635A8.969,8.969,0,0,0,8.5,5.115,19.46,19.46,0,0,0,1.611,10.53a.2.2,0,0,0,.014.309c.156.169.3.351.453.522a20.061,20.061,0,0,0,5.6,4.492,10.263,10.263,0,0,0,4.795,1.213" transform="translate(0 -1.973)" fill="#c1cdd5"/>
    <path id="Trazado_122766" data-name="Trazado 122766" d="M29.27,11.834A5.269,5.269,0,1,1,24,17.105a5.285,5.285,0,0,1,5.275-5.271m-.006,9.027A3.757,3.757,0,1,0,25.507,17.1a3.772,3.772,0,0,0,3.758,3.761" transform="translate(-17.038 -8.403)" fill="#c1cdd5"/>
    <path id="Trazado_122767" data-name="Trazado 122767" d="M11.108,16.61a.725.725,0,0,1-.534-.231.679.679,0,0,1,.056-.979L28.193.176A.732.732,0,0,1,29.2.231a.679.679,0,0,1-.056.979L11.585,16.433a.727.727,0,0,1-.477.177" transform="translate(-7.379 0)" fill="#c1cdd5"/>
  </g>
</svg>
