<svg xmlns="http://www.w3.org/2000/svg" xmlns:xlink="http://www.w3.org/1999/xlink" width="25.506" height="16.492" viewBox="0 0 25.506 16.492">
  <defs>
    <clipPath id="clip-path">
      <rect id="Rectángulo_5166" data-name="Rectángulo 5166" width="25.506" height="16.492" fill="#c1cdd5"/>
    </clipPath>
  </defs>
  <g id="Grupo_88030" data-name="Grupo 88030" transform="translate(0 0)">
    <g id="Grupo_88029" data-name="Grupo 88029" transform="translate(0 0)" clip-path="url(#clip-path)">
      <path id="Trazado_122763" data-name="Trazado 122763" d="M25.505,8.595a5.846,5.846,0,0,1-1.491,1.981,20.838,20.838,0,0,1-6.144,4.66,12.216,12.216,0,0,1-4.194,1.214,10.615,10.615,0,0,1-4.565-.613,17.7,17.7,0,0,1-6.17-3.861c-.872-.811-1.675-1.7-2.477-2.583A1.662,1.662,0,0,1,.43,7.125,23.894,23.894,0,0,1,6.293,1.982,13.082,13.082,0,0,1,11.348.1,10.864,10.864,0,0,1,16.876.81a18.354,18.354,0,0,1,5.678,3.683c.7.639,1.346,1.327,2,2.005a3.591,3.591,0,0,1,.948,1.4ZM13.019,14.913a9.769,9.769,0,0,0,3.873-.969,20.622,20.622,0,0,0,6.959-5.556c.109-.127.058-.216-.033-.323A22.18,22.18,0,0,0,18.345,3.3,11.214,11.214,0,0,0,13.265,1.6a9.362,9.362,0,0,0-4.4.843A20.314,20.314,0,0,0,1.681,8.092a.208.208,0,0,0,.015.323c.163.177.311.367.473.544a20.941,20.941,0,0,0,5.845,4.689,10.713,10.713,0,0,0,5.005,1.266" transform="translate(0 0)" fill="#c1cdd5"/>
      <path id="Trazado_122764" data-name="Trazado 122764" d="M29.5,9.056A5.5,5.5,0,1,1,24,14.558a5.517,5.517,0,0,1,5.506-5.5M29.5,18.479a3.921,3.921,0,1,0-3.922-3.926A3.938,3.938,0,0,0,29.5,18.479" transform="translate(-16.733 -6.315)" fill="#c1cdd5"/>
    </g>
  </g>
</svg>
